<?xml version="1.0" encoding="UTF-8" standalone="no"?>
<svg
   viewBox="0 0 289.49999 299.27038"
   version="1.1"
   id="svg9"
   sodipodi:docname="zju-git.svg"
   width="289.5"
   height="299.27039"
   xmlns:inkscape="http://www.inkscape.org/namespaces/inkscape"
   xmlns:sodipodi="http://sodipodi.sourceforge.net/DTD/sodipodi-0.dtd"
   xmlns="http://www.w3.org/2000/svg"
   xmlns:svg="http://www.w3.org/2000/svg">
  <sodipodi:namedview
     id="namedview9"
     pagecolor="#ffffff"
     bordercolor="#000000"
     borderopacity="0.25"
     inkscape:showpageshadow="2"
     inkscape:pageopacity="0.0"
     inkscape:pagecheckerboard="0"
     inkscape:deskcolor="#d1d1d1">
    <inkscape:page
       x="0"
       y="0"
       width="289.5"
       height="299.27039"
       id="page1"
       margin="0"
       bleed="0" />
  </sodipodi:namedview>
  <defs
     id="defs1">
    <style
       id="style1">.cls-1{fill:#deb343;}.cls-2{fill:#6f6660;}.cls-3{fill:#f38c9a;}.cls-4{fill:#f05033;}</style>
  </defs>
  <g
     id="Layer_2"
     data-name="Layer 2"
     transform="translate(0,4.2061468e-4)">
    <g
       id="Layer_1-2"
       data-name="Layer 1">
      <path
         class="cls-1"
         d="M 264,88.86 A 25.48,25.48 0 0 0 244.71,131 l -48.12,76.72 a 25.55,25.55 0 0 0 -6.59,-0.87 25.26,25.26 0 0 0 -12.4,3.24 l -98.48,-94 a 25.52,25.52 0 1 0 -10.05,11.14 l 98.15,93.68 a 25.24,25.24 0 0 0 -2.72,11.43 25.49,25.49 0 0 0 38,22.23 l 46.84,44.7 10.36,-10.85 -46.86,-44.72 a 25.41,25.41 0 0 0 -3.53,-28 l 48.1,-76.7 a 25.13,25.13 0 0 0 6.59,0.87 25.5,25.5 0 0 0 0,-51 z m -206.92,27 v 0 c -0.35,0 -0.72,0 -1.08,0 a 10.5,10.5 0 0 1 -10.5,-10.5 c 0,-0.36 0,-0.72 0,-1.07 a 10.47,10.47 0 0 1 2.35,-5.61 11.21,11.21 0 0 1 1.42,-1.42 10.08,10.08 0 0 1 1.73,-1.13 10.4,10.4 0 0 1 5,-1.27 8.77,8.77 0 0 1 1,0.06 h 0.35 l 0.65,0.1 0.41,0.1 0.56,0.14 0.43,0.15 c 0.17,0.06 0.33,0.11 0.49,0.18 l 0.45,0.19 0.43,0.21 0.46,0.25 0.36,0.22 0.47,0.32 0.29,0.22 0.48,0.38 a 2.09,2.09 0 0 0 0.22,0.2 c 0.17,0.16 0.33,0.31 0.49,0.48 l 0.12,0.13 A 10.48,10.48 0 0 1 66.4,104 v 0 a 10.85,10.85 0 0 1 0.1,1.4 10.5,10.5 0 0 1 -9.42,10.41 z m 132.92,127 c -0.36,0 -0.71,0 -1.06,-0.05 -0.14,0 -0.26,0 -0.39,-0.06 -0.13,-0.06 -0.43,-0.05 -0.65,-0.1 l -0.48,-0.12 -0.51,-0.13 -0.55,-0.2 c -0.13,0 -0.27,-0.09 -0.4,-0.15 a 6.54,6.54 0 0 1 -0.6,-0.28 c -0.1,-0.05 -0.21,-0.09 -0.31,-0.15 -0.1,-0.06 -0.42,-0.24 -0.63,-0.37 l -0.22,-0.14 c -0.22,-0.14 -0.44,-0.31 -0.65,-0.47 l -0.14,-0.11 c -0.23,-0.18 -0.45,-0.38 -0.66,-0.58 a 0.27,0.27 0 0 0 -0.08,-0.07 c -0.22,-0.22 -0.43,-0.45 -0.64,-0.69 v 0 a 10.48,10.48 0 0 1 -2.48,-6.5 v 0 c 0,-0.1 0,-0.2 0,-0.3 a 10.5,10.5 0 0 1 20.9,-1.4 0.17,0.17 0 0 0 0,0.07 11.72,11.72 0 0 1 0.09,1.33 A 10.5,10.5 0 0 1 190,242.86 Z M 271.59,121.6 c -0.15,0.16 -0.31,0.32 -0.47,0.47 l -0.17,0.15 -0.54,0.45 -0.12,0.09 a 10.47,10.47 0 0 1 -3.83,1.8 v 0 a 10.46,10.46 0 0 1 -12.89,-9 v 0 a 10.74,10.74 0 0 1 -0.06,-1.14 c 0,-0.36 0,-0.72 0.05,-1.07 a 10.47,10.47 0 0 1 2.35,-5.61 11.21,11.21 0 0 1 1.42,-1.42 10.08,10.08 0 0 1 1.68,-1.13 10.48,10.48 0 0 1 10,0 10.08,10.08 0 0 1 1.68,1.13 11.21,11.21 0 0 1 1.42,1.42 10.47,10.47 0 0 1 2.35,5.61 c 0,0.35 0.05,0.71 0.05,1.07 0,0.36 0,0.68 -0.05,1 0,0.11 0,0.21 0,0.32 0,0.11 -0.06,0.44 -0.1,0.65 l -0.09,0.38 c 0,0.19 -0.09,0.38 -0.14,0.56 l -0.12,0.4 c -0.06,0.17 -0.12,0.34 -0.19,0.51 -0.07,0.17 -0.1,0.27 -0.16,0.4 l -0.22,0.46 c -0.07,0.13 -0.13,0.27 -0.21,0.4 -0.08,0.13 -0.15,0.24 -0.22,0.37 -0.19,0.31 -0.4,0.61 -0.62,0.9 l -0.15,0.2 c -0.13,0.17 -0.28,0.33 -0.42,0.49 z"
         id="path1" />
      <polygon
         class="cls-2"
         points="240.5,49.86 240.1,24.13 263.5,29.86 "
         id="polygon1" />
      <path
         class="cls-3"
         d="m 187,1.36 c 6.69,-1.16 26.08,-4.52 41,7 a 38.57,38.57 0 0 1 13,18 c 3.42,10.46 -0.22,16.59 -1,30 -1,16.71 3.8,22 5,35 2.25,24.44 -11,44.81 -17,54 -21.88,33.6 -79,50.39 -140,34 -3.82,3.35 -9.68,8.64 -16.5,15.5 -11.38,11.46 -13.92,15.72 -18,19 -7.51,6 -22.1,10.27 -53.5,-0.5 51.55,-47 83.8,-90.92 104,-123 22.46,-35.66 46.32,-82.63 83,-89 z"
         id="path2" />
      <circle
         class="cls-2"
         cx="204.5"
         cy="32.860001"
         r="7"
         id="circle2" />
      <path
         class="cls-4"
         d="m 212.5,74.86 c 14,9.52 15.84,27.22 16,29 2,22.06 -15.25,38.56 -22,45 -42.94,41 -131.57,9.38 -138,7 6.82,-5.19 17.55,-13.68 30,-25 32,-29.06 35.28,-40.42 56,-51 7.26,-3.7 37.36,-19.07 58,-5 z"
         id="path3" />
    </g>
  </g>
</svg>
